<?xml version="1.0" encoding="UTF-8"?>
<!DOCTYPE svg PUBLIC "-//W3C//DTD SVG 1.1//EN" "http://www.w3.org/Graphics/SVG/1.1/DTD/svg11.dtd">
<!-- Creator: CorelDRAW -->
<svg xmlns="http://www.w3.org/2000/svg" xml:space="preserve" width="6.25in" height="2.08333in" version="1.1" style="shape-rendering:geometricPrecision; text-rendering:geometricPrecision; image-rendering:optimizeQuality; fill-rule:evenodd; clip-rule:evenodd"
viewBox="0 0 6250 2083.33"
 xmlns:xlink="http://www.w3.org/1999/xlink"
 xmlns:xodm="http://www.corel.com/coreldraw/odm/2003">
 <defs>
  <style type="text/css">
   <![CDATA[
    .str0 {stroke:#0D0D0D;stroke-width:52.08;stroke-miterlimit:2.61313}
    .str1 {stroke:#0D0D0D;stroke-width:6.94;stroke-miterlimit:2.61313}
    .fil0 {fill:#0D0D0D}
    .fil1 {fill:white;fill-rule:nonzero}
   ]]>
  </style>
 </defs>
 <g id="Layer_x0020_1">
  <metadata id="CorelCorpID_0Corel-Layer"/>
  <g id="_1717343541568">
   <g>
    <g>
     <path class="fil0 str0" d="M1814.57 971.52l-20.62 0 -22.51 -9.16c-20.05,-8.17 -49.96,-19.06 -72.29,-30.95 -29.76,-15.16 -51.39,-40.78 -62.07,-70.98 -14.24,-6.05 -27.42,-14.63 -40,-25.16 -32.87,-27.51 -67.24,-57.32 -101.78,-82.65 -31.15,-22.84 -64.79,-42.15 -99.64,-58.72 -49.9,-23.73 -81.17,-72.45 -81.17,-127.78l0 -60.86c0,-60.17 36.95,-111.29 92.41,-131.83 25.85,-11.02 63.5,-37.08 87.75,-52.95 15.92,-10.43 32.3,-24.72 46.81,-37.04 20.91,-17.76 42.63,-35.98 64.93,-52.02 24.41,-18.3 52.4,-29.12 83.46,-29.12 35.05,0 61.29,11.53 81.86,29.61 6.88,-28.37 13.82,-56.74 20.84,-85.09l0.95 -3.81 1.18 -3.74c17.63,-55.78 65.91,-95.42 125.7,-95.42 30.79,0 56.65,12.03 83.92,24.04 55.88,24.63 104.92,59.29 104.92,131.25 0,5.66 -0.38,11.13 -1.05,16.55 8.09,4.11 15.94,9.04 23.74,14.61l4.57 3.26 4.26 3.67c34.42,29.65 71.48,57.8 107.71,85.33 16.63,10.7 33.28,21.39 49.87,32.15 10.31,6.28 24.03,14.68 34.91,18.81 55.63,21.11 92.11,71.97 92.11,131.74l0 60.86c0,54.91 -30.67,103.26 -79.97,127.28 -71.64,34.9 -137.43,83.49 -196.63,136.59 -12.93,12.52 -27.86,21.97 -44.51,29.48l-102.32 46.15 -45.36 -78.37c-3.39,13.8 -6.86,27.55 -10.32,41.25l-1.24 4.89 -1.62 4.76c-8.21,24.1 -22.04,45.15 -40.03,61.13 0.72,-0.01 1.43,-0.02 2.15,-0.02 25.29,0 50.82,1.15 76.07,2.33 21.37,1 43.06,2.05 64.45,2.05 77.77,0 137.07,60.87 137.07,138.29 0,25.06 -1.54,50.46 -3.18,75.46 -1.28,19.52 -2.65,39.65 -2.65,59.22 0,31.19 1.31,62.69 5,93.72 6.96,16.1 19.31,36.68 31.37,55.61 10.07,-17.09 19.88,-34.9 25.68,-49.3 3.91,-29.61 3.19,-67.46 3.19,-96.14 0,-19.34 -2.06,-40.04 -3.84,-59.29 -2.5,-26.98 -4.91,-54.86 -4.91,-81.96 0,-75.79 59.17,-134.88 134.89,-134.88 20.36,0 41.26,-1.34 61.59,-2.48 24.9,-1.4 50.09,-2.63 75.04,-2.63 49.52,0 82.89,21.84 104.76,53.87 2.28,-1.78 4.6,-3.53 6.94,-5.26 75.54,-55.81 165.19,-77.79 258.07,-77.79 43.53,0 83.16,19.56 109.46,52.53 28.7,-65.27 68.78,-125.96 120.8,-181.22 122.23,-129.83 277.54,-193.69 455.57,-193.69 177.97,0 332.7,64.72 454.83,194.39 10.99,11.67 21.45,23.58 31.4,35.72 -0.44,-20.92 -0.69,-41.82 -0.69,-62.65 0,-79.01 59.65,-141.21 139.26,-141.21 45.33,0 91.1,1.97 136.4,3.75 42.16,1.65 84.7,3.31 126.89,3.31 79.5,0 141.94,59.89 141.94,139.99 0,95 -2.94,190.44 -5.9,285.39 -2.87,92.45 -5.78,185.42 -5.78,277.91 0,17.18 0.45,54.92 4.86,78.64 8.86,1.34 19.88,1.64 25.57,1.64 4.6,0 13.79,-0.29 20.65,-1.53 0.83,-5.53 1.02,-12.36 1.02,-16.02 0,-102.12 -2.55,-204.58 -5.07,-306.67 -2.57,-104.21 -5.14,-208.78 -5.14,-313.04 0,-81.22 59.25,-146.31 141.93,-146.31 40.41,0 81.2,-1.65 121.59,-3.3 43.74,-1.79 87.96,-3.76 131.74,-3.76 30.93,0 59.42,8.71 82.81,24.06 22.89,-15.11 50.83,-23.81 81.29,-23.81 54.03,0 108.17,1.23 162.17,2.72 51.61,1.41 103.46,2.87 155.09,2.87 51.05,0 102.32,-1.45 153.35,-2.87 53.37,-1.49 106.88,-2.72 160.27,-2.72 79.33,0 146.95,45.95 164.16,125.36 7.6,35.05 10.39,78.21 13.71,114.03 3.32,35.8 8.07,76 8.07,111.87 0,28.7 -8.09,55.06 -22.22,76.93l1.65 67.61 0.15 1.59 0 4.16 3.17 121.17 -3.17 0.1 0 4.82 -14.02 0c-3.36,32.8 -4.94,65.77 -4.94,98.75 0,16.12 -2.56,31.28 -7.28,45.24 42.96,25.91 68.54,75.29 68.54,130.54 0,41.72 -7.43,88.88 -13.45,130.21 -6.56,45.09 -15.56,111.41 -38.64,150.73l-0.8 1.35 -0.82 1.33c-28.07,45.17 -75.81,72.25 -129.07,72.25 -12.76,0 -25.59,-1.61 -38.22,-3.33 -27.02,-3.7 -60.39,-3.54 -87.76,-4.18 -66.14,-1.54 -132.42,-1.72 -198.58,-1.72 -54.65,0 -109.31,-0.36 -163.96,-0.73 -53.85,-0.36 -107.71,-0.73 -161.56,-0.73 -70,0 -127.05,-43.33 -143.19,-107.27 -114.86,109.59 -311.14,126.24 -459.49,126.24 -82.58,0 -176.1,-4.13 -255.84,-26.91 -112.34,-32.09 -202.04,-100.94 -243.27,-212.14 -2.41,-6.52 -4.61,-13.27 -6.61,-20.21 -4.39,6.3 -8.92,12.53 -13.58,18.72 -51.11,67.81 -112.74,121.1 -183.15,160.3 20.56,23.95 32.63,53.66 32.63,86.6 0,88.29 -71.24,131.44 -148.03,143.91 -48.64,7.9 -101.96,8.72 -151.2,8.72 -55.51,0 -145.09,1.1 -197.61,-16.2l-1.39 -0.46 -1.39 -0.5c-53.08,-18.89 -89.27,-63.21 -100.64,-118.06 -4.74,-22.87 -7.18,-47.83 -8.3,-73.11 -89.02,-37.13 -165.91,-93.51 -228.66,-169.19 -22.57,48.06 -57.22,90.19 -103.16,124.88 -76.8,57.98 -167.03,83.43 -262.77,83.43 -30.04,0 -63.84,0.54 -92.19,-10.07l-4 -1.5 -3.89 -1.77c-59.6,-27.13 -84.9,-85.79 -84.9,-147.8 0,-9.8 -1.64,-21.44 -2.88,-31.16 -2.2,-17.17 -4.18,-34.93 -4.74,-52.39 -3.34,4.88 -6.49,9.49 -9.39,13.79 -38.47,56.91 -115.11,181.33 -180.6,211.43 -33.28,14.81 -74.21,15.09 -110.21,15.09 -31.3,0 -67.49,-0.57 -97.59,-9.37l-1.89 -0.55 -1.87 -0.61c-67.79,-22.17 -145.81,-140.11 -188.57,-200.56 -6.08,28.74 -21.76,52.7 -42.66,74.79 -96.02,101.46 -219.66,149.44 -358.84,149.44 -122.24,0 -235.98,-33.48 -327.35,-112.69 -15.72,53.56 -66.37,88.8 -125.02,95.18 -19.89,2.17 -40.38,1.78 -60.31,0.46 -7.82,-0.52 -16.19,-0.96 -24.53,-1.72 -4.57,0.28 -9.31,0.83 -13.67,1.3 -14.69,1.56 -29.73,2.88 -44.5,2.88 -29.61,0 -55.68,-9.41 -76.75,-25.34 -53.33,25.81 -112.02,39.93 -175.61,39.93 -132.3,0 -245.68,-52.63 -331.12,-153.63 -79.5,-93.98 -116.9,-206.57 -116.9,-329.4 0,-124.87 36.54,-240.41 118.06,-335.74 86.88,-101.59 202.72,-151.67 336.04,-151.67 34.02,0 67.06,4.06 98.75,12.26l0 -22.52c0,-21.75 -1.07,-43.82 -2.06,-65.55 -1.19,-25.8 -2.31,-51.82 -2.31,-77.65 0,-77.4 56.39,-141.21 135.61,-141.21 22.26,0 45.68,-2.07 67.86,-3.93 29.01,-2.44 58.87,-4.81 87.98,-4.81 78.25,0 136.34,61.98 136.34,139.02 0,91.69 -3.92,184.22 -7.93,275.85 82.59,-78.29 184.91,-120.2 302.39,-120.2 108.6,0 204.84,36.39 283.24,106.99 7.9,-13.47 18.01,-25.39 29.87,-35.33zm-1033.91 420.36c0,-27.56 -7.28,-50.07 -24.74,-71.44 -12.38,-15.15 -23.64,-23.43 -43.37,-23.43 -22,0 -35.22,7.22 -49.33,24.01 -18.36,21.86 -25.1,45.3 -25.1,73.77 0,26.56 7.86,46.96 25.35,66.91 14.15,16.13 27.49,24.54 49.09,24.54 20.24,0 32,-6.25 44.8,-21.93 17.39,-21.31 23.32,-45.13 23.32,-72.44zm2893.8 -154.63c0,-37.94 -8.07,-72.75 -33.22,-101.85 -21.93,-25.37 -47.08,-33.85 -80.36,-33.85 -32.76,0 -59.65,7.12 -81.27,32.48 -25.14,29.48 -32.31,66.77 -32.31,104.69 0,36.22 5.91,75.78 30.37,104.12 21.67,25.11 50.99,31.09 83.2,31.09 33.01,0 59.63,-7.43 81.4,-32.87 25,-29.23 32.18,-66.15 32.18,-103.8z"/>
     <path class="fil0 str1" d="M3479.62 1134.03c-25.15,29.49 -32.31,66.77 -32.31,104.68 0,36.22 5.91,75.78 30.37,104.12 21.67,25.11 50.99,31.09 83.21,31.09 33,0 59.63,-7.43 81.39,-32.87 25,-29.23 32.19,-66.15 32.19,-103.8 0,-37.95 -8.06,-72.75 -33.22,-101.86 -21.93,-25.37 -47.08,-33.85 -80.35,-33.85 -32.77,0 -59.65,7.11 -81.27,32.48z"/>
    </g>
    <path class="fil0 str1" d="M780.66 1391.88c0,-27.56 -7.28,-50.06 -24.74,-71.44 -12.38,-15.15 -23.64,-23.43 -43.37,-23.43 -22,0 -35.22,7.22 -49.33,24.01 -18.36,21.86 -25.11,45.3 -25.11,73.77 0,26.56 7.87,46.96 25.35,66.92 14.15,16.13 27.48,24.53 49.09,24.53 20.24,0 32,-6.25 44.8,-21.93 17.39,-21.31 23.32,-45.13 23.32,-72.44z"/>
   </g>
   <g>
    <path class="fil1" d="M1098.76 746.54c0,60.79 -2.65,151.97 -7.96,273.06 -5.3,121.33 -7.96,212.03 -7.96,272.33 0,185.98 4.11,326.85 12.3,422.37l0.73 9.17c0.48,4.82 -6.03,7.71 -19.06,9.17 -9.17,0.96 -21.95,0.96 -38.35,0 -20.02,-1.45 -29.18,-2.17 -27.74,-2.17 -7,0 -17.61,0.72 -31.36,2.17 -13.51,1.45 -24.12,2.17 -31.11,2.17 -6.76,0 -10.61,-16.64 -11.83,-49.69 -1.2,-33.05 -3.14,-49.7 -5.54,-50.17 -2.89,1.45 -6.28,4.58 -10.61,9.17 -64.41,70.2 -138.7,105.17 -222.4,105.17 -95.04,0 -173.19,-36.19 -234.46,-108.79 -57.89,-68.26 -86.84,-150.76 -86.84,-247.25 0,-100.34 29.19,-184.77 87.57,-253.04 61.27,-71.65 141.11,-107.34 239.77,-107.34 59.34,0 111.2,17.37 155.34,52.35 20.26,17.61 40.52,35.22 60.3,53.31 3.62,-1.44 5.55,-4.82 5.55,-9.89l0 -229.15c0,-15.44 -0.72,-39.07 -2.17,-70.67 -1.44,-31.6 -2.17,-55.24 -2.17,-71.41 0,-11.33 3.85,-16.89 11.33,-16.89 17.37,0 43.42,-1.44 77.67,-4.34 34.5,-2.89 60.06,-4.34 76.95,-4.34 7.96,0 12.06,4.83 12.06,14.71zm-176.57 642.61c0,-56.45 -17.37,-106.14 -52.34,-148.83 -37.15,-45.59 -83.22,-68.5 -138.46,-68.5 -57.89,0 -105.65,22.67 -143.29,67.78 -35.94,42.46 -53.78,93.11 -53.78,152.45 0,56.44 18.57,105.65 55.72,147.62 38.35,44.14 85.39,66.33 141.36,66.33 56.68,0 103.24,-22.43 139.9,-67.06 34.01,-41.97 50.9,-91.9 50.9,-149.79zm900.46 -36.91c0,34.73 -14.95,58.13 -45.1,69.95 -20.51,7.48 -166.44,21.47 -438.29,41.97 6.03,41.49 28.94,76.71 68.74,105.9 37.87,27.74 78.39,41.73 121.81,41.73 74.78,0 143.28,-23.89 205.51,-71.41 7.72,-6.26 15.2,-12.3 22.67,-18.33 3.87,0 6.28,0.48 7.48,1.45 1.2,0.96 10.13,17.12 26.53,48.72 16.64,31.84 24.85,48.72 24.85,51.13 0,2.89 -3.86,8.2 -11.34,16.17 -69.23,73.09 -158,109.75 -266.54,109.75 -109.28,0 -196.35,-32.56 -261.48,-97.93 -64.88,-65.13 -97.45,-152.21 -97.45,-261 0,-97.22 31.12,-181.63 93.11,-253.76 65.61,-75.02 145.7,-112.41 240.97,-112.41 88.53,0 162.34,32.56 221.68,97.45 57.89,63.2 86.84,140.15 86.84,230.61zm-167.89 -42.94c0,-39.08 -15.44,-73.81 -46.31,-103.97 -30.87,-30.15 -65.61,-45.11 -104.44,-45.11 -43.42,0 -81.78,17.37 -115.55,52.11 -33.76,34.74 -50.65,73.81 -50.65,116.99 0,9.89 8.44,14.71 25.33,14.71 69.95,0 153.42,-6.99 250.62,-20.74 27.26,-3.86 41.01,-8.44 41.01,-13.99zm877.06 -45.59c0,66.57 -1.93,105.41 -5.79,116.27 -6.99,21.22 -45.35,83.22 -114.58,185.73 -71.16,105.17 -113.37,160.65 -127.12,166.2 -6.51,2.89 -26.29,4.34 -59.34,4.34 -31.6,0 -52.34,-1.45 -62.23,-4.34 -13.26,-4.34 -56.44,-57.41 -129.53,-159.68 -71.16,-99.38 -110.96,-159.93 -119.41,-181.63 -11.57,-29.67 -17.36,-75.75 -17.36,-137.98 0,-19.3 0.48,-48.24 1.44,-86.84 0.96,-38.59 1.45,-67.54 1.45,-87.08 0,-10.37 5.3,-15.44 15.67,-15.44 15.44,0 38.84,0.73 69.72,2.17 30.88,1.45 54.27,2.17 69.71,2.17 8.45,0 12.79,4.58 12.79,13.99 0,15.2 -0.97,37.39 -2.89,66.81 -1.93,29.43 -2.89,51.62 -2.89,66.82 0,43.42 2.41,82.98 7.24,118.68 2.41,17.85 26.29,61.75 71.4,131.46 45.35,69.71 73.33,104.44 84.19,104.44 10.37,0 36.18,-34.01 77.43,-102.28 40.53,-67.06 62.23,-109.02 65.13,-126.39 3.85,-23.64 5.79,-64.41 5.79,-122.06 0,-15.44 -1.45,-38.84 -4.34,-70.19 -2.89,-31.12 -4.35,-54.52 -4.35,-69.95 0,-7.24 3.62,-10.61 10.62,-10.61 15.43,0 38.11,-0.97 68.02,-2.66 30.15,-1.68 52.59,-2.41 67.54,-2.41 14.47,0 21.7,66.81 21.7,200.45zm452.76 250.14c0,70.19 -27.98,126.39 -84.18,168.85 -51.14,38.6 -113.13,57.89 -186.46,57.89 -28.22,0 -44.38,-0.72 -48.24,-2.17 -7.96,-3.62 -12.06,-15.2 -12.06,-34.5 0,-10.37 -1.2,-25.81 -3.85,-46.55 -2.66,-20.75 -3.86,-35.94 -3.86,-45.83 0,-6.03 4.34,-10.13 12.78,-12.06 6.03,-1.44 14.71,-1.44 26.06,0 14.71,1.45 21.71,2.17 21.22,2.17 89.25,0 133.87,-27.5 133.87,-82.26 0,-25.81 -19.54,-49.44 -58.38,-71.16 -63.19,-34.97 -99.61,-56.2 -109.02,-64.41 -38.84,-33.28 -58.38,-77.19 -58.38,-131.22 0,-70.68 26.78,-125.68 80.09,-165.24 48.24,-35.46 109.03,-53.06 182.84,-53.06 6.52,0 11.33,3.13 14.47,9.17 3.14,6.27 8.93,25.32 17.85,57.41 8.68,32.08 13.02,51.39 13.02,58.13 0,5.07 -4.58,8.45 -13.51,9.89 -30.15,4.1 -60.54,8.2 -91.18,11.82 -36.42,9.89 -54.51,29.67 -54.51,59.09 0,21.23 19.05,42.7 56.92,64.41 56.2,31.36 91.91,54.28 106.86,68.5 38.35,36.67 57.65,83.7 57.65,141.12zm1076.56 -276.44c0,125.19 -34.26,233.26 -102.52,323.71 -69.72,92.63 -165,152.2 -285.6,178.02 23.63,48 58.61,91.91 105.17,131.95 4.1,3.38 6.27,6.27 6.27,9.17 0,18.82 -57.89,28.22 -173.67,28.22 -85.15,0 -137.74,-3.37 -157.52,-9.89 -10.85,-3.87 -17.61,-12.55 -20.5,-26.06 -5.55,-27.26 -7.48,-72.61 -5.55,-136.29 -115.31,-28.7 -206.72,-89.49 -274.5,-182.35 -65.85,-89.98 -98.9,-195.39 -98.9,-316.48 0,-146.42 47.04,-269.68 141.35,-369.54 96,-102.28 216.85,-153.42 362.31,-153.42 144.48,0 265.09,51.39 361.58,154.14 94.8,100.35 142.07,223.13 142.07,368.82zm-267.75 -1.69c0,-72.37 -20.98,-132.91 -62.96,-181.63 -44.14,-50.9 -101.79,-76.22 -172.94,-76.22 -73.33,0 -131.71,25.08 -174.4,75.5 -41.01,47.76 -61.51,109.03 -61.51,183.81 0,76.46 20.02,137.74 60.06,183.81 41.97,48.97 100.59,73.57 175.85,73.57 73.09,0 131.22,-25.33 174.39,-75.74 41,-48 61.51,-109.03 61.51,-183.08zm1217.18 149.07c0,120.13 -14.48,202.14 -43.18,245.8 -52.82,80.09 -184.53,120.13 -395.11,120.13 -95.28,0 -168.61,-7.24 -219.99,-21.95 -82.01,-23.4 -135.33,-68.5 -159.69,-134.84 -12.3,-32.56 -18.57,-90.45 -18.57,-173.92 0,-19.3 0.72,-48 2.17,-86.11 1.45,-38.11 2.17,-66.58 2.17,-85.39 0,-54.76 -2.66,-136.77 -7.96,-245.8 -5.31,-109.28 -7.96,-191.04 -7.96,-245.32 0,-11.33 5.07,-16.89 14.95,-16.89 28.71,0 72.13,1.21 130.5,3.62 58.37,2.17 101.79,3.38 130.74,3.38 11.82,0 17.61,5.3 17.61,15.68 0,62.23 -1.93,155.34 -5.79,279.33 -3.86,124.22 -5.8,217.33 -5.8,279.56 0,74.06 7.72,123.98 23.4,149.8 20.74,35.46 63.92,53.07 130.02,53.07 96.49,0 144.73,-46.8 144.73,-140.63 0,-68.27 -1.69,-170.78 -5.07,-307.31 -3.37,-136.76 -5.06,-239.28 -5.06,-307.55 0,-14.47 5.79,-21.95 17.6,-21.95 27.74,0 69.71,-1.2 125.68,-3.38 55.96,-2.41 97.94,-3.62 125.68,-3.62 13.74,0 20.5,5.56 20.5,16.89 0,54.28 -2.18,136.05 -6.52,245.32 -4.34,109.03 -6.51,191.04 -6.51,245.8 0,14.95 0.24,37.63 0.72,68.02 0.48,30.39 0.72,53.07 0.72,68.26zm862.83 127.85c0,20.26 -4.1,57.41 -12.06,111.44 -8.44,58.61 -16.16,93.83 -22.67,104.93 -5.55,8.93 -13.51,13.51 -23.4,13.51 -4.1,0 -11.33,-0.72 -21.23,-2.17 -34.25,-4.58 -134.6,-6.99 -300.8,-6.99 -36.42,0 -90.22,-0.24 -161.85,-0.72 -71.64,-0.48 -125.43,-0.73 -161.13,-0.73 -15.68,0 -23.4,-6.76 -23.4,-20.5 0,-52.82 2.89,-131.94 8.69,-237.84 5.79,-105.65 8.68,-184.77 8.68,-237.59 0,-53.8 -2.89,-153.9 -8.68,-300.31 -1.45,-37.63 -4.11,-94.08 -7.96,-168.85l-0.73 -9.89c-0.96,-10.85 5.07,-16.17 17.61,-16.17 34.97,0 87.32,0.73 157.52,2.65 69.95,1.93 122.29,2.9 157.27,2.9 34.49,0 86.35,-0.97 155.58,-2.9 69.22,-1.92 121.09,-2.65 155.59,-2.65 24.6,0 38.59,9.17 42.45,27.26 2.41,10.85 6.27,43.67 11.33,98.42 5.07,54.51 7.48,87.8 7.48,99.62 0,9.89 -4.83,14.71 -14.23,14.71 -2.65,0 -7.72,-0.24 -14.71,-0.73 -125.68,-10.13 -238.32,-15.2 -338.43,-15.2 -24.85,0 -40.28,5.8 -45.83,17.61 -2.41,5.79 -3.61,23.88 -3.61,54.51 0,32.08 4.82,53.07 14.23,63.44 7.96,8.93 23.4,13.51 46.07,13.51 4.58,0 13.75,-0.24 27.5,-0.97 13.75,-0.72 25.09,-1.2 34.02,-1.2 59.58,0 119.64,-1.45 180.67,-4.59 5.07,-0.48 18.1,-1.69 38.84,-3.61 16.16,-1.69 28.7,-2.66 38.35,-2.66 11.33,0 16.89,5.31 16.89,16.17 0,-9.89 -4.34,26.3 -13.03,108.31 -3.86,37.63 -5.79,75.26 -5.79,112.89 0,9.41 -6.75,14.23 -20.5,14.23 0,0 -21.24,-2.42 -63.69,-7 -26.77,-2.89 -88.28,-4.34 -183.8,-4.34l-75.02 0c-19.3,0 -30.64,4.82 -34.02,14.23 -0.48,2.17 -0.72,16.89 -0.72,43.9 0,35.69 2.41,58.85 6.99,69.23 8.2,17.85 38.35,28.46 90.7,31.84 -0.97,0 33.29,0 103.24,0 24.85,0 61.99,-2.17 111.44,-6.52 49.21,-4.34 86.12,-6.52 110.72,-6.52 10.37,0 15.44,8.45 15.44,25.33z"/>
    <path class="fil1" d="M1731.94 390.78c0,2.1 -1.51,4.96 -4.37,8.43 -18.22,23.03 -47.43,48.03 -87.64,75.13 -37.49,25.6 -71.37,44.42 -101.64,56.17 -3.16,0.9 -6.78,2.86 -10.54,6.18 1.51,2.1 4.67,4.21 9.64,6.62 30.87,14.3 64.3,33.88 100.14,58.58 39.75,27.25 68.96,52.25 87.79,74.83 3.76,4.67 5.72,8.29 5.72,10.54 0,0.31 -4.37,9.04 -13.25,26.06 -8.89,17.02 -13.85,27.1 -15.21,30.41 -1.35,3.16 -2.86,4.82 -4.67,4.82 -1.81,0 -4.97,-2.11 -9.79,-6.17 -53.45,-44.72 -89.29,-73.63 -107.21,-86.89 -36.29,-26.5 -75.89,-49.85 -118.81,-70.17 -6.78,-3.31 -10.24,-8.43 -10.24,-15.51l0 -60.39c0,-7.38 3.92,-12.5 11.89,-15.51 17.62,-6.48 54.67,-28.01 111.13,-64.75 15.06,-10.09 34.63,-25.3 58.73,-45.93 26.95,-22.74 46.22,-38.1 57.82,-46.38 4.06,-3.17 7.23,-4.82 9.64,-4.82 4.67,0 15.06,19.58 30.87,58.73zm262.01 -185.07c0,1.51 -0.6,4.97 -1.81,10.54 -18.53,69.72 -45.63,174.37 -81.17,313.66 -11.44,45.33 -28.61,115.19 -51.2,209.61 -4.67,22.59 -12.65,56.02 -23.8,100.13 -2.11,6.18 -4.67,9.19 -7.53,9.19 -38.85,-15.81 -59.63,-24.54 -62.19,-26.35 -1.2,-0.6 -1.81,-2.11 -1.81,-4.37 0,-2.86 0.91,-7.07 2.71,-12.5 19.88,-68.97 47.73,-176.78 83.42,-323.6 15.21,-66.56 39.15,-166.09 71.98,-298.6 1.81,-5.72 4.22,-8.58 7.23,-8.58 1.96,0 13.25,4.51 33.58,13.4 20.33,9.03 30.57,14.76 30.57,17.46zm313.65 364.11c0,7.07 -3.31,12.2 -10.09,15.51 -75.44,36.74 -150.88,89.14 -226.17,157.06 -1.81,2.1 -5.12,4.06 -9.79,6.17 -22.13,-38.24 -33.13,-58.57 -33.13,-61.29 0,-13.1 28.46,-39.3 85.53,-78.3 49.99,-34.33 85.98,-56.32 108.12,-65.65 3.16,-1.2 6.47,-3.47 9.64,-6.62 -1.81,-1.81 -5.27,-3.77 -10.55,-6.18 -85.98,-37.19 -149.07,-80.86 -189.28,-131.3 -2.86,-3.47 -4.36,-6.33 -4.36,-8.43 0,-1.2 4.22,-9.79 12.79,-25.76 8.59,-16.11 13.25,-25.75 14.31,-29.06 1.05,-3.16 2.11,-4.82 3.31,-4.82 1.51,0 4.82,1.96 10.09,5.73 25,21.53 63.85,52.25 116.55,92.3 30.87,19.88 49.09,31.63 54.67,35.24 23.79,14.46 42.61,24.24 56.46,29.51 7.98,3.01 11.89,8.13 11.89,15.51l0 60.39z"/>
   </g>
  </g>
 </g>
</svg>
